<?xml version="1.0" standalone="no"?>
<!DOCTYPE svg PUBLIC "-//W3C//DTD SVG 20010904//EN"
 "http://www.w3.org/TR/2001/REC-SVG-20010904/DTD/svg10.dtd">
<svg version="1.0" xmlns="http://www.w3.org/2000/svg"
 width="500.000000pt" height="500.000000pt" viewBox="0 0 500.000000 500.000000"
 preserveAspectRatio="xMidYMid meet">

<g transform="translate(0.000000,500.000000) scale(0.100000,-0.100000)"
fill="#000000" stroke="none">
<path d="M2386 3890 c-135 -24 -216 -64 -466 -231 -217 -145 -215 -143 -410
-183 -178 -36 -295 -74 -385 -126 -67 -38 -98 -73 -132 -145 -27 -57 -28 -67
-28 -212 0 -138 2 -154 21 -180 33 -44 70 -57 171 -61 l92 -4 6 29 c14 65 58
173 89 219 50 74 94 113 166 148 61 29 72 31 180 31 l115 0 100 -49 c141 -69
180 -66 455 30 124 43 531 200 534 206 1 2 16 22 34 45 17 23 32 44 32 47 0 3
-227 6 -505 6 -481 0 -505 1 -505 18 0 12 40 48 108 98 159 118 197 143 265
172 61 26 65 27 354 30 330 4 354 1 501 -68 62 -29 88 -37 98 -30 6 6 33 21
59 34 l47 22 -133 67 c-74 37 -156 72 -184 78 -64 13 -614 21 -679 9z m-1098
-623 c15 -80 -123 -188 -202 -158 -46 18 -45 86 3 120 40 28 133 61 166 58 20
-1 31 -8 33 -20z"/>
<path d="M3530 3664 c-150 -40 -245 -130 -295 -279 -11 -32 -32 -70 -46 -84
-50 -51 -1066 -401 -1161 -401 -24 0 -68 17 -134 53 -98 52 -100 52 -189 52
-76 0 -96 -4 -131 -23 -39 -23 -101 -89 -91 -98 2 -2 46 -8 98 -12 l94 -7 47
-69 c59 -86 60 -109 9 -196 -59 -99 -52 -96 -186 -67 l-116 24 7 -21 c11 -39
60 -91 115 -121 49 -27 62 -30 149 -30 88 0 99 2 150 31 32 18 76 56 105 91
52 62 86 89 133 103 15 4 72 22 127 40 442 140 1019 312 1061 317 42 5 62 1
110 -21 84 -39 180 -53 251 -38 176 37 304 173 333 356 10 64 6 126 -7 126 -5
0 -155 -130 -173 -150 -30 -33 -68 -50 -110 -50 -68 0 -105 16 -133 58 -29 42
-57 121 -57 159 0 25 63 93 183 196 26 22 47 44 47 48 0 11 -68 29 -105 28
-16 0 -55 -7 -85 -15z"/>
<path d="M1279 2180 c-100 -16 -218 -76 -269 -137 -84 -100 -121 -189 -127
-308 -15 -263 151 -470 408 -507 216 -32 414 68 504 255 84 175 64 371 -53
527 -98 129 -283 197 -463 170z m164 -175 c143 -37 210 -132 210 -300 1 -106
-23 -175 -78 -230 -57 -58 -121 -78 -228 -73 -105 4 -165 32 -212 97 -43 59
-59 116 -59 210 1 162 71 264 207 297 70 17 93 17 160 -1z"/>
<path d="M2000 1710 l0 -470 95 0 95 0 2 173 3 172 193 3 192 2 0 90 0 90
-195 0 -196 0 3 108 3 107 220 5 220 5 0 90 0 90 -317 3 -318 2 0 -470z"/>
<path d="M2802 1708 l3 -463 90 0 90 0 3 463 2 462 -95 0 -95 0 2 -462z"/>
<path d="M3172 2153 c9 -10 79 -114 157 -231 l142 -213 -122 -182 c-68 -100
-138 -203 -156 -229 -18 -26 -33 -50 -33 -53 0 -12 199 -5 210 8 6 6 55 77
109 156 53 80 102 146 108 148 5 2 59 -68 118 -157 l108 -160 104 0 c81 0 103
3 97 13 -13 22 -236 351 -271 398 -18 26 -33 53 -33 60 0 8 67 114 149 237
l148 222 -107 0 -106 0 -75 -116 c-97 -151 -129 -195 -138 -189 -5 2 -53 72
-107 154 l-99 150 -109 1 c-103 0 -108 -1 -94 -17z"/>
</g>
</svg>
